<svg width="112" height="32" viewBox="0 0 112 32" fill="none" xmlns="http://www.w3.org/2000/svg">
<g clip-path="url(#clip0_265_358)">
<g clip-path="url(#clip1_265_358)">
<path d="M27.3097 1.29097C27.6678 1.29097 27.9572 1.5804 27.9572 1.93854V12.2621V12.9035C27.9656 14.1757 27.976 15.7644 27.7532 17.4489C27.495 19.4124 26.9827 21.0095 26.1957 22.3317C23.6283 26.6356 19.0162 29.7902 14.6873 30.2108C14.6665 30.2129 14.6457 30.215 14.6248 30.215C14.604 30.215 14.5832 30.215 14.5624 30.2108C10.2293 29.786 5.61719 26.6336 3.05399 22.3317C2.26275 21.0095 1.75469 19.4104 1.4965 17.4489C1.27578 15.7644 1.28619 14.1778 1.2966 12.9035V12.2621L1.29869 1.93854C1.29869 1.5804 1.58811 1.29097 1.94625 1.29097H27.3097ZM27.3097 0H1.94417C0.875998 0 0.00563431 0.870364 0.00563431 1.93854V12.8972C-0.00685895 14.132 -0.0193522 15.829 0.213855 17.6155C0.497036 19.7581 1.06131 21.5155 1.94209 22.9918C3.29553 25.2614 5.18617 27.2645 7.41206 28.7886C9.65876 30.3253 12.0804 31.2602 14.4187 31.4913C14.4853 31.4997 14.554 31.5038 14.6228 31.5038C14.6915 31.5038 14.7581 31.4997 14.8268 31.4913C17.163 31.2602 19.5847 30.3274 21.8314 28.7907C24.0572 27.2665 25.95 25.2614 27.3055 22.9918C28.1883 21.5134 28.7526 19.756 29.0337 17.6176C29.2669 15.8477 29.2565 14.2152 29.2482 12.9014V12.258V1.94062C29.2482 0.870364 28.3778 0.00208221 27.3097 0.00208221V0Z" fill="#0156FC"/>
<path d="M25.5459 14.3617C25.7354 14.5054 26.0061 14.37 26.0061 14.1327L25.9999 12.8271V3.5238C26.0019 3.36347 25.8728 3.23438 25.7125 3.23438H3.53697C3.37664 3.23438 3.24755 3.36347 3.24755 3.5238V9.24572C3.24755 9.49142 3.30377 9.73295 3.41412 9.95158C3.52448 10.1702 3.68273 10.3618 3.88054 10.5075L20.5611 22.9821C20.7069 23.0903 20.7173 23.3006 20.584 23.4256C20.2759 23.7171 19.951 23.9898 19.6137 24.248C19.5096 24.3272 19.368 24.3272 19.266 24.2501L3.70771 12.5918C3.51823 12.4502 3.24755 12.5835 3.24755 12.823C3.24755 14.8219 3.07056 18.5511 4.7509 21.4079C6.62697 24.5999 9.84815 27.1194 13.163 27.9356C13.6419 28.0522 14.1208 28.1355 14.5998 28.1793C14.6185 28.1813 14.6372 28.1813 14.6539 28.1793C16.8236 27.9835 19.0307 26.9924 20.9255 25.4953C21.4003 25.1184 21.8563 24.7124 22.2894 24.2772C23.1431 23.4172 23.8885 22.4553 24.5027 21.4121C25.0587 20.4688 25.4106 19.4298 25.6334 18.3908C25.6834 18.1659 25.725 17.9389 25.7625 17.7099C25.8603 17.1144 25.6188 16.5126 25.1378 16.1524L11.0142 5.59144C10.7935 5.42486 10.908 5.07297 11.1891 5.07297H13.0589C13.1214 5.07297 13.1818 5.09379 13.2338 5.13127L25.548 14.3638L25.5459 14.3617Z" fill="#0156FC"/>
<path d="M37.1336 19.2646C37.1336 21.0824 38.7098 22.6565 41.6166 22.6565C44.5234 22.6565 45.8581 21.3239 45.8581 19.6269C45.8581 18.1486 44.8898 17.2032 42.9513 16.8409L39.6801 16.235C36.9649 15.7269 35.5595 14.2965 35.5595 11.8728C35.5595 9.08678 37.7645 7.02539 41.3751 7.02539C45.2521 7.02539 47.6758 9.32831 47.6758 12.2351H45.7373C45.7373 10.4173 44.1611 8.84316 41.3751 8.84316C38.8306 8.84316 37.498 10.1508 37.498 11.8728C37.498 13.2304 38.3454 14.1757 40.284 14.538L42.9492 15.0232C46.3411 15.6291 47.7966 17.0825 47.7966 19.6269C47.7966 22.4129 45.6165 24.4743 41.6166 24.4743C37.6167 24.4743 35.1951 22.0506 35.1951 19.2646H37.1336Z" fill="white"/>
<path d="M59.7907 20.841C58.9432 23.1668 57.1255 24.4765 54.581 24.4765C51.3098 24.4765 48.7654 21.9321 48.7654 18.1758C48.7654 14.4195 51.3098 11.875 54.581 11.875C57.8521 11.875 60.1551 14.2987 60.1551 17.6906C60.1551 18.1758 60.1072 18.5152 60.0822 18.7317L60.0343 19.0232H50.5831C50.8497 21.3262 52.5467 22.7795 54.581 22.7795C56.0344 22.7795 57.2462 22.0757 57.8521 20.841H59.7907ZM58.3373 17.3262C58.2165 15.1212 56.6403 13.5699 54.581 13.5699C52.3759 13.5699 50.8497 15.1212 50.5831 17.3262H58.3373Z" fill="white"/>
<path d="M61.6074 12.1165H63.1816L63.4231 13.4492H63.5439C63.7854 13.1576 64.0769 12.8911 64.4392 12.6746C65.0452 12.2873 65.9426 11.875 67.1773 11.875C69.9633 11.875 72.0247 13.9343 72.0247 16.9639V24.2329H70.207V16.9639C70.207 15.0254 68.7536 13.572 66.9358 13.572C64.9973 13.572 63.421 15.1482 63.421 16.9639V24.2329H61.6033V12.1165H61.6074Z" fill="white"/>
<path d="M74.5711 13.8135H72.6326V12.1165H74.5711V8.72461H76.3889V12.1165H79.1749V13.8135H76.3889V21.8113C76.3889 22.2965 76.6304 22.538 77.1156 22.538H79.1749V24.235H76.7512C75.3936 24.235 74.5711 23.4104 74.5711 22.1757V13.8156V13.8135Z" fill="white"/>
<path d="M80.8708 12.1172H82.6886V24.2336H80.8708V12.1172Z" fill="white"/>
<path d="M84.9903 12.1165H86.5644L86.8059 13.4492H86.9267C87.1682 13.1576 87.4597 12.8911 87.8221 12.6746C88.428 12.2873 89.3254 11.875 90.5602 11.875C93.3462 11.875 95.4076 13.9343 95.4076 16.9639V24.2329H93.5898V16.9639C93.5898 15.0254 92.1364 13.572 90.3186 13.572C88.3801 13.572 86.8039 15.1482 86.8039 16.9639V24.2329H84.9861V12.1165H84.9903Z" fill="white"/>
<path d="M107.888 20.841C107.041 23.1668 105.223 24.4765 102.679 24.4765C99.4075 24.4765 96.863 21.9321 96.863 18.1758C96.863 14.4195 99.4075 11.875 102.679 11.875C105.95 11.875 108.253 14.2987 108.253 17.6906C108.253 18.1758 108.205 18.5152 108.18 18.7317L108.132 19.0232H98.6808C98.9473 21.3262 100.644 22.7795 102.679 22.7795C104.132 22.7795 105.344 22.0757 105.95 20.841H107.888ZM106.435 17.3262C106.314 15.1212 104.738 13.5699 102.679 13.5699C100.474 13.5699 98.9473 15.1212 98.6808 17.3262H106.435Z" fill="white"/>
<path d="M109.826 7.26953H111.644V24.2312H109.826V7.26953Z" fill="white"/>
</g>
</g>
<defs>
<clipPath id="clip0_265_358">
<rect width="112" height="31.5018" fill="white"/>
</clipPath>
<clipPath id="clip1_265_358">
<rect width="112" height="31.5018" fill="white"/>
</clipPath>
</defs>
</svg>
